<svg width="261" height="55" viewBox="0 0 261 55" fill="none" xmlns="http://www.w3.org/2000/svg">
<g clip-path="url(#clip0_521_5559)">
<path d="M177.79 6.06671V20.0528H181.763C183.002 20.0528 183.987 19.9075 184.715 19.6169C185.444 19.29 186.028 18.8177 186.429 18.2365C186.793 17.6552 187.048 16.9287 187.194 16.0931C187.34 15.2213 187.413 14.2041 187.413 13.0779C187.413 11.9518 187.34 10.9709 187.194 10.0991C187.048 9.22721 186.793 8.46433 186.356 7.84676C185.481 6.68428 183.841 6.06671 181.399 6.06671H177.754H177.79ZM170.756 44.9009V0H182.055C190.328 0 194.447 4.39564 194.447 13.1869C194.447 15.8388 193.973 18.0911 193.062 19.9439C192.187 21.7966 190.62 23.286 188.397 24.4122L195.978 44.9009H188.542L182.018 25.7199H177.827V44.9009H170.793H170.756Z" fill="#FB8273"/>
<path d="M200.06 44.9009V0H210.447C214.493 0 217.555 1.01717 219.596 3.01519C221.71 5.04954 222.767 7.88309 222.767 11.5885V32.5859C222.767 36.7999 221.637 39.8877 219.377 41.9221C217.19 43.8838 213.983 44.9009 209.828 44.9009H200.06ZM207.058 6.06671V38.8342H210.302C212.27 38.8342 213.691 38.3983 214.493 37.5264C215.331 36.5819 215.732 35.1651 215.732 33.2398V11.5885C215.732 9.80845 215.331 8.46433 214.566 7.48349C213.8 6.50264 212.379 6.03038 210.302 6.03038H207.058V6.06671Z" fill="#FB8273"/>
<path d="M229.364 44.9009V0H236.106L245.109 23.7583H245.255L254.184 0H261V44.9009H253.966V17.5826H253.82L246.858 36.8725H243.359L236.471 17.5826H236.325V44.9009H229.291H229.364Z" fill="#FB8273"/>
<path d="M0 15.2949H6.3783V44.3207H0V15.2949Z" fill="black"/>
<path d="M148.742 13.6602C140.25 13.6602 133.325 20.5624 133.325 29.0267C133.325 32.3325 134.382 35.3477 136.131 37.8543L122.5 49.8061C121.661 50.6417 122.5 52.894 123.374 53.7658C124.213 54.6014 126.473 55.5096 127.347 54.6377L139.266 41.1238C141.89 43.1582 145.17 44.3933 148.742 44.3933C157.234 44.3933 164.159 37.4911 164.159 29.0267C164.159 20.5624 157.234 13.6602 148.742 13.6602ZM148.742 39.3074C143.056 39.3074 138.464 34.6938 138.464 29.0631C138.464 23.4323 143.093 18.8187 148.742 18.8187C154.391 18.8187 159.02 23.4323 159.02 29.0631C159.02 34.6938 154.391 39.3074 148.742 39.3074Z" fill="black"/>
<path d="M51.5001 28.192L57.0401 15.332H63.8558L51.4637 44.2851L39.0715 15.3684H45.9236L51.5001 28.192Z" fill="black"/>
<path d="M99.2098 44.2488V31.0256L115.393 45.048V15.1504H108.504V28.2647L92.3213 15.223V44.2488H99.2098Z" fill="black"/>
<path d="M35.6091 15.2227H28.7205V28.3369L12.5378 15.2953V44.3211H19.4264V31.0978L35.6091 45.1203V15.2227Z" fill="black"/>
<path d="M121.479 14.75H127.858V43.7758H121.479V14.75Z" fill="black"/>
<path d="M87.7653 44.1386V38.3989H75.6647V32.1869H86.8906V26.3381H75.6647V21.0343H87.4737V15.1855H67.6099V44.1386H87.7653Z" fill="black"/>
<path d="M155.047 29.3898C155.047 32.5866 153.626 35.0205 153.043 35.965C154.464 35.0205 156.542 32.5866 156.505 29.3898C156.505 26.1929 154.501 23.759 153.043 22.8145C153.626 23.759 155.084 26.1929 155.047 29.3898Z" fill="black"/>
<path d="M155.047 29.3898C155.047 32.5866 153.626 35.0205 153.043 35.965C154.464 35.0205 156.542 32.5866 156.505 29.3898C156.505 26.1929 154.501 23.759 153.043 22.8145C153.626 23.759 155.084 26.1929 155.047 29.3898Z" fill="black" stroke="white" stroke-width="0.05" stroke-miterlimit="10"/>
</g>
<defs>
<clipPath id="clip0_521_5559">
<rect width="261" height="55" fill="white"/>
</clipPath>
</defs>
</svg>
